# xmcd
#
# Track frame offsets:
#	150
#	14890
#	35347
#	52145
#	68800
#	85525
#	119252
#	137090
#	153752
#	161935
#	173686
#	202066
#	214661
#	233639
#	246887
#	272758
#	287406
#	304349
#	317943
#	333538
#
# Disc length: 4653 seconds
#
# Revision: 1
# Processed by: cddbd v1.5.2PL0 Copyright (c) Steve Scherf et al.
# Submitted via: audiograbber 1.83.01
#
DISCID=27122b14
DTITLE=Rolling Stones - Forty Licks CD1
DYEAR=2002
DGENRE=Blues
TTITLE0=Street Fighting Man
TTITLE1=Gimme Shelter
TTITLE2=Satisfaction
TTITLE3=The Last Time
TTITLE4=Jumpin' Jack Flash
TTITLE5=You Can't Always Get What You Want
TTITLE6=19th Nervous Breakdown
TTITLE7=Under My Thumb
TTITLE8=Not Fade Away
TTITLE9=Have You Seen Your Mother Baby
TTITLE10=Sympathy For The Devil
TTITLE11=Mother's Little Helper
TTITLE12=She's A Rainbow
TTITLE13=Get Off Of My Cloud
TTITLE14=Wild Horses
TTITLE15=Ruby Tuesday
TTITLE16=Paint It, Black
TTITLE17=Honky Tonk Women
TTITLE18=It's All Over Now
TTITLE19=Let's Spend The Night Together
EXTD=
EXTT0=
EXTT1=
EXTT2=
EXTT3=
EXTT4=
EXTT5=
EXTT6=
EXTT7=
EXTT8=
EXTT9=
EXTT10=
EXTT11=
EXTT12=
EXTT13=
EXTT14=
EXTT15=
EXTT16=
EXTT17=
EXTT18=
EXTT19=
PLAYORDER=
